<?xml version="1.0" standalone="no"?>
<!DOCTYPE svg PUBLIC "-//W3C//DTD SVG 20010904//EN"
 "http://www.w3.org/TR/2001/REC-SVG-20010904/DTD/svg10.dtd">
<svg version="1.0" xmlns="http://www.w3.org/2000/svg"
 width="1024.000000pt" height="369.000000pt" viewBox="0 0 1024.000000 369.000000"
 preserveAspectRatio="xMidYMid meet">

<g transform="translate(0.000000,369.000000) scale(0.100000,-0.100000)"
fill="#000000" stroke="none">
<path d="M1838 2559 c-294 -32 -545 -249 -618 -535 -27 -104 -27 -254 0 -358
63 -248 267 -452 517 -517 97 -25 250 -27 346 -5 245 57 438 234 523 481 25
72 28 94 29 215 0 114 -4 147 -23 210 -105 336 -425 547 -774 509z m484 -322
c-6 -6 -107 -80 -225 -162 l-214 -150 150 -5 151 -5 -333 -233 c-183 -129
-334 -232 -337 -229 -4 3 314 716 346 777 10 19 20 20 242 20 183 0 228 -3
220 -13z"/>
<path d="M7910 2474 c-8 -1 -41 -6 -72 -9 l-58 -6 0 -615 0 -614 85 0 85 0 0
228 0 229 158 6 c238 9 365 49 449 140 73 80 99 161 90 288 -12 184 -126 299
-339 343 -69 14 -347 21 -398 10z m329 -144 c158 -26 231 -103 231 -242 -1
-179 -90 -240 -374 -254 l-146 -7 0 251 c0 230 1 251 18 255 34 9 208 7 271
-3z"/>
<path d="M3230 1850 l0 -620 80 0 80 0 0 285 0 285 260 0 260 0 0 70 0 70
-257 2 -258 3 -3 193 -2 192 290 0 290 0 0 70 0 70 -370 0 -370 0 0 -620z"/>
<path d="M6915 2413 c-117 -249 -251 -580 -398 -980 l-75 -203 87 0 87 0 56
158 56 157 287 0 288 0 56 -157 56 -158 92 0 93 0 -11 28 c-6 15 -46 122 -89
237 -104 280 -247 636 -331 820 l-68 150 -79 3 -80 3 -27 -58z m249 -490 c47
-123 86 -227 86 -233 0 -6 -83 -10 -235 -10 -136 0 -235 4 -235 9 0 16 120
331 172 451 27 63 53 122 56 130 8 19 47 -69 156 -347z"/>
<path d="M8880 1850 l0 -620 85 0 85 0 0 620 0 620 -85 0 -85 0 0 -620z"/>
<path d="M5925 2439 c-27 -5 -60 -12 -73 -14 l-23 -6 3 -487 c5 -559 4 -557
86 -642 64 -65 128 -85 261 -77 76 4 179 26 199 42 9 7 -22 125 -33 125 -6 0
-33 -7 -59 -16 -32 -11 -70 -15 -121 -12 -86 4 -119 22 -150 84 -18 36 -20 63
-23 317 l-4 277 181 0 181 0 0 65 0 65 -180 0 -180 0 0 145 c0 80 -3 144 -7
144 -5 -1 -30 -5 -58 -10z"/>
<path d="M4206 2164 c-38 -7 -71 -15 -73 -18 -3 -3 -2 -34 1 -69 l7 -64 57 14
c75 18 227 21 273 5 74 -26 119 -102 119 -203 l0 -61 -27 6 c-122 27 -284 15
-379 -28 -110 -50 -158 -134 -153 -263 7 -134 70 -218 192 -255 55 -17 324
-16 440 1 l88 13 -3 352 c-5 404 -7 416 -88 497 -65 65 -144 89 -284 88 -55 0
-132 -7 -170 -15z m372 -518 c9 -5 12 -48 12 -151 l0 -144 -56 -7 c-30 -3 -92
-4 -137 -2 -155 8 -214 59 -205 175 6 63 38 104 102 128 43 15 259 17 284 1z"/>
<path d="M5194 2169 c-69 -16 -145 -69 -178 -123 -42 -67 -48 -164 -16 -231
33 -68 87 -107 235 -170 152 -64 211 -107 221 -162 9 -50 -16 -100 -64 -121
-58 -26 -248 -23 -327 6 -32 12 -62 22 -66 22 -8 0 -33 -129 -27 -136 3 -2 42
-14 88 -25 69 -18 105 -21 214 -17 118 4 137 7 194 33 99 45 152 123 152 225
0 135 -68 204 -286 290 -117 47 -153 68 -174 103 -26 42 -26 97 1 130 42 55
176 71 304 37 39 -10 72 -16 74 -14 2 1 9 30 16 64 10 46 10 62 1 65 -87 29
-289 42 -362 24z"/>
</g>
</svg>
