<?xml version="1.0" standalone="no"?>
<!DOCTYPE svg PUBLIC "-//W3C//DTD SVG 20010904//EN"
 "http://www.w3.org/TR/2001/REC-SVG-20010904/DTD/svg10.dtd">
<svg version="1.0" xmlns="http://www.w3.org/2000/svg"
 width="618.000000pt" height="200.000000pt" viewBox="0 0 618.000000 200.000000"
 preserveAspectRatio="xMidYMid meet">

<g transform="translate(0.000000,200.000000) scale(0.100000,-0.100000)"
fill="#000000" stroke="none">
<path d="M3307 1574 c-10 -11 -9 -1102 2 -1108 5 -3 49 -3 97 0 l89 7 -2 551
-3 551 -88 3 c-48 1 -91 0 -95 -4z"/>
<path d="M5450 1025 l0 -555 95 0 95 0 0 86 c0 84 1 87 41 145 23 32 45 56 50
53 4 -2 54 -68 111 -144 l102 -140 114 0 c88 0 112 3 106 13 -4 6 -76 102
-160 213 l-153 201 135 184 135 184 -97 3 c-54 1 -103 1 -110 -2 -8 -3 -71
-91 -141 -197 l-128 -192 -3 352 -2 351 -95 0 -95 0 0 -555z"/>
<path d="M2520 1509 c-54 -11 -88 -34 -115 -80 -19 -32 -20 -55 -23 -496 l-3
-463 101 0 100 0 0 210 0 210 188 2 187 3 7 80 c4 44 6 86 3 93 -3 9 -52 12
-196 12 l-192 0 5 101 c8 153 17 158 311 159 l177 0 0 90 0 90 -252 -1 c-139
-1 -273 -5 -298 -10z"/>
<path d="M1015 1425 c4 -44 11 -116 15 -160 5 -44 6 -83 2 -86 -4 -3 -107 -50
-229 -104 -123 -54 -223 -101 -223 -105 0 -4 9 -15 20 -25 22 -20 0 -28 337
123 l112 51 16 -54 c34 -119 52 -97 -170 -208 -193 -96 -197 -98 -180 -118 10
-10 25 -19 33 -19 9 0 93 41 189 90 95 50 177 90 181 90 5 0 15 -15 24 -33 9
-18 39 -58 68 -90 66 -72 147 -113 256 -129 77 -11 81 -11 102 10 12 12 34 22
48 22 14 0 34 5 44 10 16 8 24 4 46 -25 30 -40 27 -61 -12 -76 -15 -5 -33 -17
-39 -26 -8 -10 -30 -17 -61 -19 -27 -1 -89 -14 -139 -29 -76 -23 -110 -27
-215 -28 -110 -1 -135 2 -205 26 -44 14 -100 39 -125 55 -25 15 -52 32 -60 36
-8 5 122 -129 290 -298 l305 -306 176 0 c206 0 253 10 311 67 56 55 68 105 68
292 l0 156 -495 495 -496 495 6 -80z"/>
<path d="M4790 1307 c-129 -37 -190 -115 -190 -245 0 -55 5 -79 28 -123 40
-80 75 -96 277 -130 87 -15 125 -47 125 -106 0 -21 -7 -48 -15 -60 -21 -29
-84 -46 -143 -37 -73 10 -100 28 -112 74 l-11 40 -84 0 -85 0 0 -28 c0 -60 29
-129 70 -165 54 -50 130 -70 255 -70 148 1 237 40 286 126 20 34 24 56 24 117
0 88 -16 139 -57 185 -36 42 -83 60 -222 85 -119 22 -142 35 -152 85 -13 69
42 110 137 103 69 -5 104 -31 113 -84 l7 -34 81 0 81 0 -6 66 c-10 134 -100
204 -270 210 -56 3 -110 -1 -137 -9z"/>
<path d="M4030 1301 c-161 -6 -178 -8 -217 -30 -41 -24 -76 -66 -101 -124 -34
-79 -40 -368 -9 -482 17 -61 48 -124 74 -147 32 -29 106 -58 151 -58 33 0 65
12 142 54 l100 54 27 -49 28 -49 68 0 67 0 0 420 0 420 -77 -2 c-43 -1 -157
-4 -253 -7z m138 -368 l-3 -198 -70 -37 c-38 -21 -80 -38 -93 -38 -42 0 -88
26 -104 61 -37 79 -30 286 12 355 28 44 53 53 163 53 l97 1 -2 -197z"/>
</g>
</svg>
