<?xml version="1.0" standalone="no"?>
<!DOCTYPE svg PUBLIC "-//W3C//DTD SVG 20010904//EN"
 "http://www.w3.org/TR/2001/REC-SVG-20010904/DTD/svg10.dtd">
<svg version="1.0" xmlns="http://www.w3.org/2000/svg"
 width="128.000000pt" height="128.000000pt" viewBox="0 0 128.000000 128.000000"
 preserveAspectRatio="xMidYMid meet">

<g transform="translate(0.000000,128.000000) scale(0.100000,-0.100000)"
fill="#000000" stroke="none">
<path d="M453 1230 c-127 -33 -183 -76 -183 -138 0 -165 546 -218 705 -67 60
56 42 125 -44 170 -108 55 -337 72 -478 35z"/>
<path d="M287 953 c-17 -16 -5 -57 26 -87 90 -91 379 -120 573 -60 98 31 163
108 120 143 -10 8 -26 5 -67 -13 -93 -40 -156 -51 -299 -50 -141 0 -224 15
-302 55 -42 21 -42 21 -51 12z"/>
<path d="M273 784 c-10 -28 24 -81 69 -108 68 -39 167 -59 303 -59 189 0 324
43 360 114 17 32 12 69 -9 69 -8 0 -38 -11 -69 -25 -156 -72 -418 -72 -574 0
-65 29 -72 30 -80 9z"/>
<path d="M287 633 c-17 -16 -5 -57 26 -87 89 -90 367 -120 566 -60 67 20 131
75 131 115 0 15 -4 30 -9 33 -5 3 -33 -5 -62 -18 -93 -40 -156 -51 -299 -50
-141 0 -224 15 -302 55 -42 21 -42 21 -51 12z"/>
<path d="M56 384 c-3 -9 -6 -64 -6 -124 0 -83 3 -110 15 -120 28 -24 45 5 45
79 1 66 1 66 19 44 24 -29 38 -29 62 0 18 22 18 22 19 -44 0 -74 17 -103 45
-79 12 10 15 37 15 120 0 60 -3 115 -6 124 -10 26 -31 18 -65 -24 -18 -22 -36
-40 -40 -40 -4 0 -20 18 -36 40 -29 41 -57 51 -67 24z"/>
<path d="M825 375 c-22 -21 -25 -33 -25 -102 0 -120 31 -150 146 -138 l62 7 1
104 c1 99 0 106 -23 129 -21 21 -35 25 -81 25 -46 0 -60 -4 -80 -25z m119 -31
c12 -5 16 -20 16 -61 0 -30 -4 -52 -9 -49 -18 11 -43 -6 -38 -26 5 -16 1 -19
-26 -16 -32 3 -32 3 -35 66 -2 38 2 69 9 78 12 14 55 19 83 8z"/>
<path d="M1075 388 c-3 -8 -4 -68 -3 -134 l3 -119 66 -3 c50 -2 69 1 79 13 20
24 -5 45 -56 45 l-43 0 -3 102 c-3 89 -5 103 -21 106 -9 2 -19 -3 -22 -10z"/>
<path d="M578 374 c-33 -17 -45 -56 -29 -90 12 -26 36 -39 91 -49 19 -3 42
-10 50 -15 13 -9 12 -12 -4 -25 -30 -22 -64 -18 -91 11 -40 43 -74 15 -40 -33
49 -70 195 -38 195 42 0 32 -39 62 -99 77 -62 15 -75 33 -36 48 33 12 75 3 83
-19 7 -21 22 -30 39 -24 21 8 15 42 -12 68 -19 20 -34 25 -72 25 -26 -1 -60
-7 -75 -16z"/>
<path d="M315 281 c-3 -6 7 -35 22 -65 l27 -56 -27 -56 c-22 -44 -25 -59 -16
-70 6 -8 15 -14 20 -14 11 0 139 252 133 262 -12 19 -44 6 -59 -22 -9 -16 -18
-30 -20 -30 -2 0 -11 14 -20 30 -15 29 -47 40 -60 21z"/>
</g>
</svg>
